<?xml version="1.0" encoding="UTF-8"?>
<!DOCTYPE svg PUBLIC "-//W3C//DTD SVG 1.1//EN" "http://www.w3.org/Graphics/SVG/1.1/DTD/svg11.dtd">
<!-- Creator: CorelDRAW -->
<svg xmlns="http://www.w3.org/2000/svg" xml:space="preserve" width="1593.37mm" height="422.285mm" version="1.1" style="shape-rendering:geometricPrecision; text-rendering:geometricPrecision; image-rendering:optimizeQuality; fill-rule:evenodd; clip-rule:evenodd"
viewBox="0 0 47445.35 12574.24"
 xmlns:xlink="http://www.w3.org/1999/xlink"
 xmlns:xodm="http://www.corel.com/coreldraw/odm/2003">
 <defs>
  <style type="text/css">
   <![CDATA[
    .fil1 {fill:#318615}
    .fil0 {fill:#F6CA47}
   ]]>
  </style>
 </defs>
 <g id="Layer_x0020_1">
  <metadata id="CorelCorpID_0Corel-Layer"/>
  <g id="_1790762633024">
   <path class="fil0" d="M5303.57 10043.14c-491.4,0 -613.64,15.62 -1098.8,-191.27 -1863.86,-794.78 -1433.55,-4252.24 597.12,-4252.24 729.5,0 1412.82,6.3 1907.66,672.43 1314.45,1769.45 -56.22,3771.08 -1405.98,3771.08zm-5303.57 2293.41l3010.13 0 0 -931.71c408.39,109.06 1469.99,1586.32 3992.59,1054.13 646.31,-136.34 1563.71,-692.93 2006.88,-1218.26 1042.97,-1236.28 1302.57,-2809.48 1075.3,-4402.18 -162.57,-1139.23 -629.63,-2127.31 -1505.56,-2866.28 -1049.01,-884.98 -2571.54,-1225.37 -3839.08,-727.72 -424.5,166.65 -582.01,153.08 -1107.39,541.01 -217.83,160.84 -366.52,383.93 -622.72,452.33l0 -4156.84 -3010.13 0 0 12255.5z"/>
   <path class="fil0" d="M27879.52 81.06c-184.55,792.13 -71.67,10403.47 -71.67,12040.5 0,165.15 49.88,215 215.02,215l2866.78 0 0 -1935.08c0,-340.62 672.62,-1077.53 931.7,-1146.71 72.75,137.48 107.33,238.75 204.85,368.51l779.37 1227.38c11.38,18.06 42.97,70.94 54.1,89.23l596.58 980.16c104.08,159.34 144.65,258.03 228.51,416.52l3440.14 0c-246,-464.93 -527.18,-818.85 -810.85,-1267.57l-1226.63 -1855.16c-180.3,-246.43 -257.99,-393.8 -427.55,-647.51 -1022.31,-1529.7 -1092.42,-1047.16 -54.2,-2332.48l1424.47 -1657.32c49.65,-54.67 55.74,-60.72 103.02,-111.98 197.67,-214.33 871.24,-975.5 920.08,-1158.35 -283.61,-159.32 -2717.1,-71.68 -3225.14,-71.68 -206.33,0 -560.55,555.11 -757.72,819.01 -127.38,170.49 -208.87,290.82 -338.87,449.51 -67.53,82.42 -92.17,105.99 -166.3,192.05 -9.67,11.21 -23.65,27.14 -33.28,38.4l-98.13 116.88c-342.5,402.56 -1220.96,1607.87 -1544.16,1824.3l6.32 -6170.34c-9.41,-573.86 -158.5,-475.55 -578.82,-491.09 -831.38,-30.78 -1715.89,-7.68 -2437.63,67.83z"/>
   <path class="fil0" d="M21214.25 4094.55l0 -788.36c-666.64,-155.32 -2107.81,-71.68 -2866.78,-71.68 -165.15,0 -215.02,49.88 -215.02,215l0 8672.03c0,165.15 49.88,215 215.02,215 3285.62,0 2877,228.21 2867.37,-787.75 -8.82,-932.25 -114.4,-4606.17 116.86,-5115.04 631.76,-1390.31 2964.34,-1045.74 2964.34,670.91l0 5231.87 2866.78 0c170.67,-732.53 71.68,-4613.87 71.68,-5661.9 0,-798.62 -319.91,-1943.45 -840.93,-2527.55 -151.6,-169.94 -291,-252.42 -464.4,-395.63 -971.2,-802.07 -2395.32,-911.51 -3506.15,-454.89 -705.53,290.03 -889.16,583.96 -1208.77,797.97z"/>
   <path class="fil1" d="M42285.13 296.06l0 2938.46 -1146.71 0 0 2365.11c1372.64,319.77 1146.71,-747.93 1146.71,1505.06 0,761.01 -75.31,2079.87 27.71,2767.42 619.51,4134.49 5132.51,2351.11 5132.51,1819.42 0,-255 -472.34,-1724.55 -573.36,-1935.08 -859.56,575.61 -1648.4,231.9 -1648.4,-645.01l0 -3440.16 1863.41 -71.65 0 -2365.11 -1863.41 0 0 -3153.46 -2723.44 0c-165.15,0 -215.02,49.88 -215.02,215z"/>
   <path class="fil0" d="M10614.35 12256.82l2848.93 36.51c-66.9,-1551.72 95.32,-11297.1 -56.27,-12140.9l-2728.17 -20.15c-190.99,848.67 73.81,11254.97 -64.48,12124.54z"/>
   <path class="fil1" d="M37554.93 12336.56l3010.14 0c50.99,-218.88 26.92,-126.73 37.54,-309.35 115.19,-1977.54 34.11,-6553.13 34.11,-8792.69l-3081.79 0 0 9102.04z"/>
   <path class="fil0" d="M14333.95 3521.2l0 8600.36c0,165.15 49.87,215 215,215l2795.13 0 0 -9102.04 -2723.46 0c-167.77,0 -286.67,118.91 -286.67,286.68z"/>
   <rect class="fil0" x="14333.95" y="132.27" width="2906.64" height="2390.37" rx="46.6" ry="49.14"/>
   <rect class="fil1" x="37554.93" y="132.27" width="3006.07" height="2390.37" rx="48.2" ry="49.14"/>
  </g>
 </g>
</svg>
